<svg xmlns="http://www.w3.org/2000/svg" width="117.76" height="32.203" viewBox="0 0 117.76 32.203">
  <g id="Group_164" data-name="Group 164" transform="translate(-1682.75 -377.15)">
    <g id="Group_162" data-name="Group 162" transform="translate(1722.573 381.724)">
      <path id="Path_73" data-name="Path 73" d="M1715.4,386.237c.488-.122.976-.488,1.464-.61.488-.244.976-.488,1.585-.854a10.115,10.115,0,0,0,1.464-.976,11.017,11.017,0,0,0,1.22-1.1h2.683v17.321h-3.781V387.457a10.034,10.034,0,0,1-1.586.854l-1.829.732Z" transform="translate(-1715.4 -380.504)" fill="#fff"/>
      <path id="Path_74" data-name="Path 74" d="M1738.8,391.2c0,2.928-.488,5.123-1.586,6.709a5.552,5.552,0,0,1-9.025,0c-1.1-1.586-1.586-3.781-1.586-6.709a11.863,11.863,0,0,1,.488-3.781,14.9,14.9,0,0,1,1.22-2.806,5.219,5.219,0,0,1,1.951-1.708,5.672,5.672,0,0,1,2.562-.61,5.1,5.1,0,0,1,4.513,2.318C1738.309,385.959,1738.8,388.4,1738.8,391.2Zm-3.9,0a14.011,14.011,0,0,0-.122-2.318,8.055,8.055,0,0,0-.366-1.83,4.071,4.071,0,0,0-.732-1.22,1.864,1.864,0,0,0-1.22-.488,1.565,1.565,0,0,0-1.219.488,3.519,3.519,0,0,0-.732,1.22,6.916,6.916,0,0,0-.366,1.83,22.085,22.085,0,0,0,0,4.635,6.9,6.9,0,0,0,.366,1.83,4.053,4.053,0,0,0,.732,1.22,1.862,1.862,0,0,0,1.219.488,1.567,1.567,0,0,0,1.22-.488,3.535,3.535,0,0,0,.732-1.22q.182-.732.366-1.83A12.589,12.589,0,0,0,1734.894,391.2Z" transform="translate(-1712.939 -380.592)" fill="#fff"/>
      <path id="Path_75" data-name="Path 75" d="M1750.751,384.408c.121.61.487,1.464.609,2.318.244.854.488,1.708.732,2.684a22.784,22.784,0,0,0,.853,2.684c.366.854.488,1.708.854,2.562.122-.854.487-1.708.61-2.684s.487-1.952.61-3.049.366-2.074.488-3.172.366-2.074.488-3.05h4.025c-.487,2.928-1.219,5.855-1.951,8.783-.732,3.049-1.585,5.733-2.439,8.539h-3.537c-.488-1.586-1.22-3.294-1.708-5s-1.1-3.415-1.586-5.245c-.488,1.708-1.1,3.415-1.586,5.245s-1.1,3.416-1.585,5h-3.537c-.854-2.684-1.708-5.489-2.439-8.539s-1.464-5.977-1.952-8.783h4.147c.122.976.366,1.952.488,3.05a29.256,29.256,0,0,0,.61,3.172c.122,1.1.488,2.074.61,3.049a14.154,14.154,0,0,0,.732,2.684c.244-.854.488-1.586.854-2.562a22.767,22.767,0,0,1,.853-2.684,21.88,21.88,0,0,0,.732-2.684c.122-.854.488-1.586.61-2.318Z" transform="translate(-1710.501 -380.504)" fill="#fff"/>
      <path id="Path_76" data-name="Path 76" d="M1756.9,392.753a7.627,7.627,0,0,1,.488-3.05,9.59,9.59,0,0,1,1.342-2.2,5.312,5.312,0,0,1,1.952-1.22A7.869,7.869,0,0,1,1763,385.8a5.533,5.533,0,0,1,4.391,1.708c1.1,1.1,1.585,2.805,1.585,5v.732a1.545,1.545,0,0,1-.122.732h-8.415a2.891,2.891,0,0,0,1.1,1.83,4,4,0,0,0,2.561.61c.61,0,1.342-.122,1.952-.122a3.053,3.053,0,0,0,1.586-.488l.488,3.049c-.122.122-.488.122-.854.244s-.732.122-1.1.244a4.143,4.143,0,0,1-1.219.122,5.01,5.01,0,0,1-1.342.122,7.618,7.618,0,0,1-3.049-.488,6.916,6.916,0,0,1-2.2-1.464,5.431,5.431,0,0,1-1.22-2.2A10.477,10.477,0,0,1,1756.9,392.753Zm8.66-1.464c0-.244-.122-.61-.122-.854a7.005,7.005,0,0,0-.487-.854,1,1,0,0,0-.733-.488,2.7,2.7,0,0,0-1.1-.122c-.487,0-.732.122-1.1.122-.244.122-.488.366-.732.488a5.324,5.324,0,0,0-.488.854,7.758,7.758,0,0,1-.244.854Z" transform="translate(-1706.284 -379.823)" fill="#fff"/>
      <path id="Path_77" data-name="Path 77" d="M1781.5,393.708a7.159,7.159,0,0,1-.488,2.806,5.1,5.1,0,0,1-1.342,2.2,4.7,4.7,0,0,1-2.073,1.342,10.484,10.484,0,0,1-2.928.488,5,5,0,0,1-1.341-.122,5.944,5.944,0,0,0-1.464-.122c-.488-.122-.854-.122-1.342-.244s-.853-.122-1.219-.244v-18.3l3.781-.61v6.465a12.6,12.6,0,0,0,1.22-.488,5.028,5.028,0,0,1,1.464-.122,5.462,5.462,0,0,1,2.439.488,10.128,10.128,0,0,1,1.83,1.342,5.319,5.319,0,0,1,1.1,2.2A11.339,11.339,0,0,1,1781.5,393.708Zm-3.781-.122c0-2.318-.853-3.537-2.683-3.537-.366,0-.732.122-1.1.122a1.108,1.108,0,0,0-.854.366v6.709c.122,0,.488.122.732.122h.854a3.122,3.122,0,0,0,2.317-.976A5.053,5.053,0,0,0,1777.716,393.586Z" transform="translate(-1703.56 -380.9)" fill="#fff"/>
    </g>
    <g id="Group_163" data-name="Group 163" transform="translate(1682.75 377.15)">
      <path id="Path_78" data-name="Path 78" d="M1686.744,388.067l10.733-10.734a.742.742,0,0,1,.976,0l15.49,15.614a.743.743,0,0,1,0,.976l-.122.122a3.393,3.393,0,0,1-4.635,0l-10.977-10.978a.742.742,0,0,0-.976,0l-6.1,6.1a3.393,3.393,0,0,1-4.635,0h0A1.641,1.641,0,0,1,1686.744,388.067Z" transform="translate(-1681.927 -377.15)" fill="#fff"/>
      <path id="Path_79" data-name="Path 79" d="M1710.253,395.82l-10.733,10.734a.742.742,0,0,1-.976,0l-15.612-15.614a.743.743,0,0,1,0-.976h0a3.393,3.393,0,0,1,4.635,0l10.855,10.856a.742.742,0,0,0,.976,0l6.1-6.1a3.392,3.392,0,0,1,4.635,0h0A.783.783,0,0,1,1710.253,395.82Z" transform="translate(-1682.75 -374.534)" fill="#fff"/>
      <path id="Path_80" data-name="Path 80" d="M1697.482,391.227l-2.684-2.684a2.066,2.066,0,0,1,0-2.805l.122-.122a1.856,1.856,0,0,1,2.805,0l5.488,5.489a.741.741,0,0,1,0,.976l-5.244,5.245a1.856,1.856,0,0,1-2.805,0h0a1.856,1.856,0,0,1,0-2.806l2.44-2.44A.772.772,0,0,0,1697.482,391.227Z" transform="translate(-1680.223 -375.43)" fill="#fff"/>
      <path id="Path_81" data-name="Path 81" d="M1694.958,390.069l-.854-.854a1.856,1.856,0,0,0-2.805,0h0a2.066,2.066,0,0,0,0,2.806h0a1.856,1.856,0,0,0,2.805,0l.854-.854A.686.686,0,0,0,1694.958,390.069Z" transform="translate(-1680.993 -374.639)" fill="#fff"/>
    </g>
  </g>
</svg>
