<?xml version="1.0" encoding="utf-8"?>
<!-- Generator: Adobe Illustrator 21.0.2, SVG Export Plug-In . SVG Version: 6.00 Build 0)  -->
<svg version="1.1" id="Layer_1" xmlns="http://www.w3.org/2000/svg" xmlns:xlink="http://www.w3.org/1999/xlink" x="0px" y="0px"
	 viewBox="0 0 20.8 18.6" style="enable-background:new 0 0 20.8 18.6;" xml:space="preserve">
<style type="text/css">
	.st0{fill:#555D66;}
</style>
<path class="st0" d="M20.2,9.8L20.2,9.8h-7v3h3c-0.7,1.1-1.7,1.5-3,1.5c-2.1,0-3.7-1.6-3.8-3.6c0-2.1,1.7-3.7,3.7-3.7
	c0.7,0,1.3,0.1,1.8,0.6h4.4c-1.2-2.4-3.5-3.9-6.2-3.9c-3.9,0-7,3-7,6.9c-0.1,2.1,1,4.6,3.1,5.9H7.7c-3.7-3.9-3-8.9-0.1-11.7
	c3-3,8.9-3.1,12,1.1c0.1,0.1-1.4-2.6-1.9-3.8c-0.3-0.7-0.9-1-1.7-1c-1.9,0-3.8,0-5.6,0c-0.8,0-1.3,0.3-1.7,1c-0.3,0.5-0.6,1-1,1.5
	c-0.3,0.3-1.1,0.3-1.1,0c0-0.6-0.4-0.5-0.7-0.5c-0.6,0-1.3,0-1.9,0c-0.2,0-0.4,0-0.4,0.3c0,0.4-0.2,0.4-0.5,0.5
	C1.5,4.1,0.6,5.2,0.6,6.7c0,2.7,0,5.4,0,8.1c0,1.1,0.6,1.8,1.7,1.8c1.6,0,3.1,0,4.6,0l0.8,0c0,0,0,0,0,0h1.6c1,0.7,2.3,1.1,3.8,1.1
	c4.5,0,7-3.6,7-6.9v-0.1c0-0.2,0-0.3,0-0.5C20.1,9.9,20.2,9.8,20.2,9.8z"/>
</svg>
